{
  "accessors": [
    {
      "bufferView": 2,
      "componentType": 5126,
      "count": 59515,
      "max": [
        1.427203893661499,
        1.7292150259017944,
        10.684863090515137
      ],
      "min": [
        -4.767250061035156,
        -2.1643378734588623,
        -0.7840860486030579
      ],
      "type": "VEC3"
    },
    {
      "bufferView": 2,
      "byteOffset": 714180,
      "componentType": 5126,
      "count": 59515,
      "max": [
        1.0,
        1.0,
        1.0
      ],
      "min": [
        -1.0,
        -1.0,
        -1.0
      ],
      "type": "VEC3"
    },
    {
      "bufferView": 3,
      "componentType": 5126,
      "count": 59515,
      "max": [
        1.0,
        1.0,
        1.0,
        1.0
      ],
      "min": [
        -1.0,
        -1.0,
        -1.0,
        -1.0
      ],
      "type": "VEC4"
    },
    {
      "bufferView": 1,
      "componentType": 5126,
      "count": 59515,
      "max": [
        0.9993526339530945,
        0.9993540644645691
      ],
      "min": [
        0.0006401111022569239,
        0.0006379898404702544
      ],
      "type": "VEC2"
    },
    {
      "bufferView": 0,
      "componentType": 5125,
      "count": 260385,
      "type": "SCALAR"
    }
  ],
  "asset": {
    "extras": {
      "author": "ale45br (https://sketchfab.com/ale45br)",
      "license": "CC-BY-ND-4.0 (http://creativecommons.org/licenses/by-nd/4.0/)",
      "source": "https://sketchfab.com/3d-models/robot-toy-0ecb59f96be244ae884ecf10f1689023",
      "title": "ROBOT  TOY"
    },
    "generator": "Sketchfab-16.33.0",
    "version": "2.0"
  },
  "bufferViews": [
    {
      "buffer": 0,
      "byteLength": 1041540,
      "name": "floatBufferViews",
      "target": 34963
    },
    {
      "buffer": 0,
      "byteLength": 476120,
      "byteOffset": 1041540,
      "byteStride": 8,
      "name": "floatBufferViews",
      "target": 34962
    },
    {
      "buffer": 0,
      "byteLength": 1428360,
      "byteOffset": 1517660,
      "byteStride": 12,
      "name": "floatBufferViews",
      "target": 34962
    },
    {
      "buffer": 0,
      "byteLength": 952240,
      "byteOffset": 2946020,
      "byteStride": 16,
      "name": "floatBufferViews",
      "target": 34962
    }
  ],
  "buffers": [
    {
      "byteLength": 3898260,
      "uri": "scene.bin"
    }
  ],
  "extensionsRequired": [
    "KHR_materials_pbrSpecularGlossiness"
  ],
  "extensionsUsed": [
    "KHR_materials_pbrSpecularGlossiness"
  ],
  "images": [
    {
      "uri": "textures/Material_diffuse.png"
    },
    {
      "uri": "textures/Material_specularGlossiness.png"
    },
    {
      "uri": "textures/Material_normal.png"
    },
    {
      "uri": "textures/Material_occlusion.png"
    }
  ],
  "materials": [
    {
      "doubleSided": true,
      "extensions": {
        "KHR_materials_pbrSpecularGlossiness": {
          "diffuseFactor": [
            1.0,
            1.0,
            1.0,
            1.0
          ],
          "diffuseTexture": {
            "index": 0
          },
          "glossinessFactor": 0.8468541184052922,
          "specularFactor": [
            0.5428454602387076,
            0.5428454602387076,
            0.5428454602387076
          ],
          "specularGlossinessTexture": {
            "index": 1
          }
        }
      },
      "name": "Material",
      "normalTexture": {
        "index": 2,
        "scale": 0.5671661528920344
      },
      "occlusionTexture": {
        "index": 3
      }
    }
  ],
  "meshes": [
    {
      "name": "Cube.000_Material_0",
      "primitives": [
        {
          "attributes": {
            "NORMAL": 1,
            "POSITION": 0,
            "TANGENT": 2,
            "TEXCOORD_0": 3
          },
          "indices": 4,
          "material": 0,
          "mode": 4
        }
      ]
    }
  ],
  "nodes": [
    {
      "children": [
        1
      ],
      "matrix": [
        0.5228212475776672,
        0.0,
        0.0,
        0.0,
        0.0,
        1.160896373647951e-16,
        -0.5228212475776672,
        0.0,
        0.0,
        0.5228212475776672,
        1.160896373647951e-16,
        0.0,
        0.0,
        0.0,
        0.0,
        1.0
      ],
      "name": "Sketchfab_model"
    },
    {
      "children": [
        2
      ],
      "matrix": [
        0.38,
        0.0,
        0.0,
        0.0,
        0.0,
        0.0,
        0.38,
        0.0,
        0.0,
        -0.38,
        0.0,
        0.0,
        0.0,
        0.7,
        -2.0,
        0.38
      ],
      "name": "SM_Robot1.fbx"
    },
    {
      "children": [
        3
      ],
      "name": "RootNode"
    },
    {
      "children": [
        4
      ],
      "matrix": [
        1.0,
        0.0,
        0.0,
        0.0,
        0.0,
        -1.6292067939183141e-07,
        -0.9999999999999868,
        0.0,
        0.0,
        0.9999999999999868,
        -1.6292067939183141e-07,
        0.0,
        1.3734287023544312,
        0.9173732399940491,
        1.1362007856369019,
        1.0
      ],
      "name": "Cube.000"
    },
    {
      "mesh": 0,
      "name": "Cube.000_Material_0"
    }
  ],
  "samplers": [
    {
      "magFilter": 9729,
      "minFilter": 9987,
      "wrapS": 10497,
      "wrapT": 10497
    }
  ],
  "scene": 0,
  "scenes": [
    {
      "name": "Sketchfab_Scene",
      "nodes": [
        0
      ]
    }
  ],
  "textures": [
    {
      "sampler": 0,
      "source": 0
    },
    {
      "sampler": 0,
      "source": 1
    },
    {
      "sampler": 0,
      "source": 2
    },
    {
      "sampler": 0,
      "source": 3
    }
  ]
}
