{
  "accessors": [
    {
      "bufferView": 1,
      "componentType": 5126,
      "count": 1590,
      "max": [
        0.9898599982261658,
        0.9898599982261658,
        0.19047999382019043
      ],
      "min": [
        -0.9898599982261658,
        -1.0100200176239014,
        -1.0
      ],
      "type": "VEC3"
    },
    {
      "bufferView": 1,
      "byteOffset": 19080,
      "componentType": 5126,
      "count": 1590,
      "max": [
        1.0,
        0.9922668933868408,
        0.9987789392471313
      ],
      "min": [
        -1.0,
        -0.9997643828392029,
        -0.9951844215393066
      ],
      "type": "VEC3"
    },
    {
      "bufferView": 0,
      "componentType": 5125,
      "count": 2310,
      "type": "SCALAR"
    },
    {
      "bufferView": 1,
      "byteOffset": 38160,
      "componentType": 5126,
      "count": 1189,
      "max": [
        0.9898599982261658,
        0.9898599982261658,
        1.0
      ],
      "min": [
        -0.9898599982261658,
        -0.9816700220108032,
        0.07021000236272812
      ],
      "type": "VEC3"
    },
    {
      "bufferView": 1,
      "byteOffset": 52428,
      "componentType": 5126,
      "count": 1189,
      "max": [
        0.9922668933868408,
        0.9922668933868408,
        0.9951387047767639
      ],
      "min": [
        -0.9922668933868408,
        -0.9921870231628418,
        -0.998707115650177
      ],
      "type": "VEC3"
    },
    {
      "bufferView": 0,
      "byteOffset": 9240,
      "componentType": 5125,
      "count": 1722,
      "type": "SCALAR"
    },
    {
      "bufferView": 1,
      "byteOffset": 66696,
      "componentType": 5126,
      "count": 296,
      "max": [
        0.9640399813652039,
        0.9724500179290771,
        0.251910001039505
      ],
      "min": [
        -0.9640399813652039,
        -0.9229900240898132,
        -0.251910001039505
      ],
      "type": "VEC3"
    },
    {
      "bufferView": 1,
      "byteOffset": 70248,
      "componentType": 5126,
      "count": 296,
      "max": [
        0.9951844215393066,
        0.9951844215393066,
        0.029579948633909225
      ],
      "min": [
        -0.9951844215393066,
        -0.9999876022338867,
        -0.04247993975877762
      ],
      "type": "VEC3"
    },
    {
      "bufferView": 0,
      "byteOffset": 16128,
      "componentType": 5125,
      "count": 528,
      "type": "SCALAR"
    }
  ],
  "asset": {
    "extras": {
      "author": "Sir2Yas (https://sketchfab.com/yas2yas)",
      "license": "CC-BY-4.0 (http://creativecommons.org/licenses/by/4.0/)",
      "source": "https://sketchfab.com/3d-models/pokeball-6ed553fa4ece42e1a0429c168fe2e8cb",
      "title": "Pokeball"
    },
    "generator": "Sketchfab-12.66.0",
    "version": "2.0"
  },
  "bufferViews": [
    {
      "buffer": 0,
      "byteLength": 18240,
      "name": "floatBufferViews",
      "target": 34963
    },
    {
      "buffer": 0,
      "byteLength": 73800,
      "byteOffset": 18240,
      "byteStride": 12,
      "name": "floatBufferViews",
      "target": 34962
    }
  ],
  "buffers": [
    {
      "byteLength": 92040,
      "uri": "scene.bin"
    }
  ],
  "materials": [
    {
      "doubleSided": true,
      "name": "Material.001",
      "pbrMetallicRoughness": {
        "baseColorFactor": [
          0.8000000119,
          0.8000000119,
          0.8000000119,
          1.0
        ],
        "metallicFactor": 0.0,
        "roughnessFactor": 0.6
      }
    },
    {
      "doubleSided": true,
      "name": "Material",
      "pbrMetallicRoughness": {
        "baseColorFactor": [
          1.0,
          0.0046245316,
          0.0,
          1.0
        ],
        "metallicFactor": 0.0,
        "roughnessFactor": 0.6
      }
    },
    {
      "doubleSided": true,
      "name": "Material.002",
      "pbrMetallicRoughness": {
        "baseColorFactor": [
          0.006570362,
          0.006570362,
          0.006570362,
          1.0
        ],
        "metallicFactor": 0.0,
        "roughnessFactor": 0.6
      }
    }
  ],
  "meshes": [
    {
      "name": "Sphere_0",
      "primitives": [
        {
          "attributes": {
            "NORMAL": 1,
            "POSITION": 0
          },
          "indices": 2,
          "material": 0,
          "mode": 4
        }
      ]
    },
    {
      "name": "Sphere_1",
      "primitives": [
        {
          "attributes": {
            "NORMAL": 4,
            "POSITION": 3
          },
          "indices": 5,
          "material": 1,
          "mode": 4
        }
      ]
    },
    {
      "name": "Sphere_2",
      "primitives": [
        {
          "attributes": {
            "NORMAL": 7,
            "POSITION": 6
          },
          "indices": 8,
          "material": 2,
          "mode": 4
        }
      ]
    }
  ],
  "nodes": [
    {
      "children": [
        1
      ],
      "matrix": [
        1.0,
        0.0,
        0.0,
        0.0,
        0.0,
        2.220446049250313e-16,
        -1.0,
        0.0,
        0.0,
        1.0,
        2.220446049250313e-16,
        0.0,
        0.0,
        0.0,
        0.0,
        1.0
      ],
      "name": "Sketchfab_model"
    },
    {
      "children": [
        2
      ],
      "name": "Root"
    },
    {
      "children": [
        3,
        4,
        5
      ],
      "name": "Sphere"
    },
    {
      "mesh": 0,
      "name": "Sphere_0"
    },
    {
      "mesh": 1,
      "name": "Sphere_1"
    },
    {
      "mesh": 2,
      "name": "Sphere_2"
    }
  ],
  "scene": 0,
  "scenes": [
    {
      "name": "Sketchfab_Scene",
      "nodes": [
        0
      ]
    }
  ]
}
