{
  "accessors": [
    {
      "bufferView": 1,
      "componentType": 5126,
      "count": 864,
      "max": [1.0852446556091309, 0.20000000298023224, 1.0852446556091309],
      "min": [-1.0852446556091309, -0.20082858204841614, -1.0852446556091309],
      "type": "VEC3"
    },
    {
      "bufferView": 1,
      "byteOffset": 10368,
      "componentType": 5126,
      "count": 864,
      "max": [1.0, 1.0, 1.0],
      "min": [-1.0, -1.0, -1.0],
      "type": "VEC3"
    },
    {
      "bufferView": 0,
      "componentType": 5125,
      "count": 2592,
      "type": "SCALAR"
    },
    {
      "bufferView": 1,
      "byteOffset": 20736,
      "componentType": 5126,
      "count": 864,
      "max": [1.0852446556091309, 0.20000000298023224, 1.0852446556091309],
      "min": [-1.0852446556091309, -0.20082858204841614, -1.0852446556091309],
      "type": "VEC3"
    },
    {
      "bufferView": 1,
      "byteOffset": 31104,
      "componentType": 5126,
      "count": 864,
      "max": [1.0, 1.0, 1.0],
      "min": [-1.0, -1.0, -1.0],
      "type": "VEC3"
    },
    {
      "bufferView": 0,
      "byteOffset": 10368,
      "componentType": 5125,
      "count": 2592,
      "type": "SCALAR"
    },
    {
      "bufferView": 2,
      "componentType": 5126,
      "count": 200,
      "max": [8.333333015441895],
      "min": [0.0416666679084301],
      "type": "SCALAR"
    },
    {
      "bufferView": 4,
      "componentType": 5126,
      "count": 200,
      "max": [
        0.7071068286895752, 0.7071067690849304, 0.7071067690849304,
        0.7071067094802856
      ],
      "min": [
        8.432163411953297e-9, -0.707019567489624, -0.7070195078849792,
        8.432163411953297e-9
      ],
      "type": "VEC4"
    },
    {
      "bufferView": 2,
      "byteOffset": 800,
      "componentType": 5126,
      "count": 3,
      "max": [8.333333015441895],
      "min": [0.0416666679084301],
      "type": "SCALAR"
    },
    {
      "bufferView": 3,
      "componentType": 5126,
      "count": 3,
      "max": [1.0, 1.0, 1.0],
      "min": [0.9999999403953552, 1.0, 0.9999999403953552],
      "type": "VEC3"
    },
    {
      "bufferView": 2,
      "byteOffset": 812,
      "componentType": 5126,
      "count": 200,
      "max": [8.333333015441895],
      "min": [0.0416666679084301],
      "type": "SCALAR"
    },
    {
      "bufferView": 4,
      "byteOffset": 3200,
      "componentType": 5126,
      "count": 200,
      "max": [
        0.7070975303649902, 0.7070672512054443, 0.70706707239151,
        0.7070975303649902
      ],
      "min": [
        0.0036183446645736694, -0.7070975303649902, -0.7070975303649902,
        0.0036183446645736694
      ],
      "type": "VEC4"
    }
  ],
  "animations": [
    {
      "channels": [
        {
          "sampler": 0,
          "target": {
            "node": 3,
            "path": "rotation"
          }
        },
        {
          "sampler": 1,
          "target": {
            "node": 3,
            "path": "scale"
          }
        },
        {
          "sampler": 2,
          "target": {
            "node": 5,
            "path": "rotation"
          }
        }
      ],
      "name": "Animation",
      "samplers": [
        {
          "input": 6,
          "interpolation": "LINEAR",
          "output": 7
        },
        {
          "input": 8,
          "interpolation": "LINEAR",
          "output": 9
        },
        {
          "input": 10,
          "interpolation": "LINEAR",
          "output": 11
        }
      ]
    }
  ],
  "asset": {
    "extras": {
      "author": "ROY (https://sketchfab.com/roy.gearloft.in)",
      "license": "CC-BY-4.0 (http://creativecommons.org/licenses/by/4.0/)",
      "source": "https://sketchfab.com/3d-models/gears-2d80f07dc73e4cb0813a15e5daba3ced",
      "title": "Gears"
    },
    "generator": "Sketchfab-13.83.0",
    "version": "2.0"
  },
  "bufferViews": [
    {
      "buffer": 0,
      "byteLength": 20736,
      "name": "floatBufferViews",
      "target": 34963
    },
    {
      "buffer": 0,
      "byteLength": 41472,
      "byteOffset": 20736,
      "byteStride": 12,
      "name": "floatBufferViews",
      "target": 34962
    },
    {
      "buffer": 0,
      "byteLength": 1612,
      "byteOffset": 62208,
      "name": "floatBufferViews"
    },
    {
      "buffer": 0,
      "byteLength": 36,
      "byteOffset": 63820,
      "byteStride": 12,
      "name": "floatBufferViews"
    },
    {
      "buffer": 0,
      "byteLength": 6400,
      "byteOffset": 63856,
      "byteStride": 16,
      "name": "floatBufferViews"
    }
  ],
  "buffers": [
    {
      "byteLength": 70256,
      "uri": "scene.bin"
    }
  ],
  "materials": [
    {
      "doubleSided": true,
      "name": "Material",
      "pbrMetallicRoughness": {
        "baseColorFactor": [1.0, 1.0, 1.0, 1.0],
        "metallicFactor": 0.971963,
        "roughnessFactor": 0.238318
      }
    },
    {
      "doubleSided": true,
      "name": "Material.001",
      "pbrMetallicRoughness": {
        "baseColorFactor": [1.0, 1.0, 1.0, 1.0],
        "metallicFactor": 0.971963,
        "roughnessFactor": 0.15085760261364606
      }
    }
  ],
  "meshes": [
    {
      "name": "Object_0",
      "primitives": [
        {
          "attributes": {
            "NORMAL": 1,
            "POSITION": 0
          },
          "indices": 2,
          "material": 0,
          "mode": 4
        }
      ]
    },
    {
      "name": "Object_1",
      "primitives": [
        {
          "attributes": {
            "NORMAL": 4,
            "POSITION": 3
          },
          "indices": 5,
          "material": 1,
          "mode": 4
        }
      ]
    }
  ],
  "nodes": [
    {
      "children": [1],
      "matrix": [
        0.6, 0.0, 0.0, 0.0, 0.0, 2.220446049250313e-16, 0.6, -1.0, 0.0, 0.6,
        2.220446049250313e-16, 0.0, 0.0, 0.0, 0.0, 1.0
      ],
      "name": "Sketchfab_model"
    },
    {
      "children": [2],
      "name": "root"
    },
    {
      "children": [3, 5],
      "matrix": [
        1.0, 0.0, 0.0, 0.0, 0.0, 2.220446049250313e-16, 1.0, 0.0, 0.0, -1.0,
        2.220446049250313e-16, 0.0, 0.0, 0.0, 0.0, 1.0
      ],
      "name": "GLTF_SceneRootNode"
    },
    {
      "children": [4],
      "name": "Gear_1",
      "rotation": [0.7071068286895752, 0.0, 0.0, 0.7071068286895752],
      "translation": [-0.9857321977615356, 0.0, 0.0]
    },
    {
      "mesh": 0,
      "name": "Object_4"
    },
    {
      "children": [6],
      "name": "Gear.001_2",
      "rotation": [
        0.6995335221290588, 0.10321317613124847, 0.10321318358182907,
        0.6995334625244141
      ],
      "translation": [1.0262898206710815, 0.0, 0.0]
    },
    {
      "mesh": 1,
      "name": "Object_6"
    }
  ],
  "scene": 0,
  "scenes": [
    {
      "name": "Sketchfab_Scene",
      "nodes": [0]
    }
  ]
}
