{
  "accessors": [
    {
      "bufferView": 2,
      "componentType": 5126,
      "count": 17278,
      "max": [
        5.845460891723633,
        27.141908645629883,
        6.546022891998291
      ],
      "min": [
        -5.70961856842041,
        22.85930633544922,
        2.0570549964904785
      ],
      "type": "VEC3"
    },
    {
      "bufferView": 2,
      "byteOffset": 207336,
      "componentType": 5126,
      "count": 17278,
      "max": [
        0.9999977350234985,
        0.9999568462371826,
        0.9996344447135925
      ],
      "min": [
        -0.9999823570251465,
        -0.9999999403953552,
        -0.9999558329582214
      ],
      "type": "VEC3"
    },
    {
      "bufferView": 3,
      "componentType": 5126,
      "count": 17278,
      "max": [
        1.0,
        1.0,
        1.0,
        1.0
      ],
      "min": [
        0.019607843831181526,
        0.019607843831181526,
        0.019607843831181526,
        1.0
      ],
      "type": "VEC4"
    },
    {
      "bufferView": 1,
      "componentType": 5126,
      "count": 17278,
      "max": [
        1.0,
        1.0
      ],
      "min": [
        0.0,
        0.0
      ],
      "type": "VEC2"
    },
    {
      "bufferView": 0,
      "componentType": 5125,
      "count": 96768,
      "type": "SCALAR"
    },
    {
      "bufferView": 2,
      "byteOffset": 414672,
      "componentType": 5126,
      "count": 65532,
      "max": [
        9.219559669494629,
        12.410088539123535,
        11.909351348876953
      ],
      "min": [
        -9.8108549118042,
        0.6187081933021545,
        3.3925881385803223
      ],
      "type": "VEC3"
    },
    {
      "bufferView": 2,
      "byteOffset": 1201056,
      "componentType": 5126,
      "count": 65532,
      "max": [
        0.9999909400939941,
        0.9999234080314636,
        0.9999997615814209
      ],
      "min": [
        -0.999884307384491,
        -0.9999947547912598,
        -0.9990590810775757
      ],
      "type": "VEC3"
    },
    {
      "bufferView": 3,
      "byteOffset": 276448,
      "componentType": 5126,
      "count": 65532,
      "max": [
        0.5529412031173706,
        0.33725491166114807,
        0.43529412150382996,
        1.0
      ],
      "min": [
        0.2235294133424759,
        0.18039216101169586,
        0.2862745225429535,
        1.0
      ],
      "type": "VEC4"
    },
    {
      "bufferView": 0,
      "byteOffset": 387072,
      "componentType": 5125,
      "count": 347511,
      "type": "SCALAR"
    },
    {
      "bufferView": 2,
      "byteOffset": 1987440,
      "componentType": 5126,
      "count": 65532,
      "max": [
        9.00839614868164,
        22.82059669494629,
        11.485494613647461
      ],
      "min": [
        -9.42949104309082,
        0.04939722642302513,
        4.6021881103515625
      ],
      "type": "VEC3"
    },
    {
      "bufferView": 2,
      "byteOffset": 2773824,
      "componentType": 5126,
      "count": 65532,
      "max": [
        0.9999909400939941,
        0.9999827146530151,
        0.9999399185180664
      ],
      "min": [
        -0.9999945759773254,
        -0.9998020529747009,
        -0.9998718500137329
      ],
      "type": "VEC3"
    },
    {
      "bufferView": 3,
      "byteOffset": 1324960,
      "componentType": 5126,
      "count": 65532,
      "max": [
        0.5568627715110779,
        0.33725491166114807,
        0.43529412150382996,
        1.0
      ],
      "min": [
        0.2235294133424759,
        0.18039216101169586,
        0.2862745225429535,
        1.0
      ],
      "type": "VEC4"
    },
    {
      "bufferView": 0,
      "byteOffset": 1777116,
      "componentType": 5125,
      "count": 337239,
      "type": "SCALAR"
    },
    {
      "bufferView": 2,
      "byteOffset": 3560208,
      "componentType": 5126,
      "count": 65532,
      "max": [
        9.239347457885742,
        29.007022857666016,
        11.137015342712402
      ],
      "min": [
        -10.688823699951172,
        0.00967379193753004,
        -7.449217319488525
      ],
      "type": "VEC3"
    },
    {
      "bufferView": 2,
      "byteOffset": 4346592,
      "componentType": 5126,
      "count": 65532,
      "max": [
        0.9999909400939941,
        0.9999865889549255,
        0.9999878406524658
      ],
      "min": [
        -0.999990701675415,
        -0.9999998807907104,
        -0.9999929666519165
      ],
      "type": "VEC3"
    },
    {
      "bufferView": 3,
      "byteOffset": 2373472,
      "componentType": 5126,
      "count": 65532,
      "max": [
        0.5568627715110779,
        0.33725491166114807,
        0.43529412150382996,
        1.0
      ],
      "min": [
        0.2235294133424759,
        0.18039216101169586,
        0.2862745225429535,
        1.0
      ],
      "type": "VEC4"
    },
    {
      "bufferView": 0,
      "byteOffset": 3126072,
      "componentType": 5125,
      "count": 318006,
      "type": "SCALAR"
    },
    {
      "bufferView": 2,
      "byteOffset": 5132976,
      "componentType": 5126,
      "count": 65532,
      "max": [
        9.24450397491455,
        28.54692268371582,
        11.088342666625977
      ],
      "min": [
        -10.619729995727539,
        0.46098285913467407,
        -10.884692192077637
      ],
      "type": "VEC3"
    },
    {
      "bufferView": 2,
      "byteOffset": 5919360,
      "componentType": 5126,
      "count": 65532,
      "max": [
        0.998569667339325,
        0.9990724921226501,
        0.9999939799308777
      ],
      "min": [
        -0.9979281425476074,
        -0.9989856481552124,
        -0.9999968409538269
      ],
      "type": "VEC3"
    },
    {
      "bufferView": 3,
      "byteOffset": 3421984,
      "componentType": 5126,
      "count": 65532,
      "max": [
        0.5568627715110779,
        0.33725491166114807,
        0.43529412150382996,
        1.0
      ],
      "min": [
        0.2235294133424759,
        0.18039216101169586,
        0.2862745225429535,
        1.0
      ],
      "type": "VEC4"
    },
    {
      "bufferView": 0,
      "byteOffset": 4398096,
      "componentType": 5125,
      "count": 346815,
      "type": "SCALAR"
    },
    {
      "bufferView": 2,
      "byteOffset": 6705744,
      "componentType": 5126,
      "count": 65532,
      "max": [
        7.232712745666504,
        28.46595573425293,
        1.850168228149414
      ],
      "min": [
        -9.842496871948242,
        0.014854671433568,
        -10.884692192077637
      ],
      "type": "VEC3"
    },
    {
      "bufferView": 2,
      "byteOffset": 7492128,
      "componentType": 5126,
      "count": 65532,
      "max": [
        0.8830470442771912,
        0.9562206268310547,
        0.5128998756408691
      ],
      "min": [
        -0.9999072551727295,
        -0.9999969601631165,
        -0.9999968409538269
      ],
      "type": "VEC3"
    },
    {
      "bufferView": 3,
      "byteOffset": 4470496,
      "componentType": 5126,
      "count": 65532,
      "max": [
        0.22745098173618317,
        0.33725491166114807,
        0.43529412150382996,
        1.0
      ],
      "min": [
        0.2235294133424759,
        0.33725491166114807,
        0.43529412150382996,
        1.0
      ],
      "type": "VEC4"
    },
    {
      "bufferView": 0,
      "byteOffset": 5785356,
      "componentType": 5125,
      "count": 356610,
      "type": "SCALAR"
    },
    {
      "bufferView": 2,
      "byteOffset": 8278512,
      "componentType": 5126,
      "count": 65532,
      "max": [
        8.42989730834961,
        28.32419776916504,
        7.45055627822876
      ],
      "min": [
        -10.618917465209961,
        -0.0027995640411973,
        -8.959691047668457
      ],
      "type": "VEC3"
    },
    {
      "bufferView": 2,
      "byteOffset": 9064896,
      "componentType": 5126,
      "count": 65532,
      "max": [
        0.8688934445381165,
        0.9112606048583984,
        0.46446287631988525
      ],
      "min": [
        -0.9934676289558411,
        -0.999999463558197,
        -0.9953948259353638
      ],
      "type": "VEC3"
    },
    {
      "bufferView": 3,
      "byteOffset": 5519008,
      "componentType": 5126,
      "count": 65532,
      "max": [
        0.22745098173618317,
        0.33725491166114807,
        0.43529412150382996,
        1.0
      ],
      "min": [
        0.2235294133424759,
        0.33725491166114807,
        0.43529412150382996,
        1.0
      ],
      "type": "VEC4"
    },
    {
      "bufferView": 0,
      "byteOffset": 7211796,
      "componentType": 5125,
      "count": 354660,
      "type": "SCALAR"
    },
    {
      "bufferView": 2,
      "byteOffset": 9851280,
      "componentType": 5126,
      "count": 65532,
      "max": [
        10.546393394470215,
        28.344165802001953,
        9.42282485961914
      ],
      "min": [
        -9.763099670410156,
        -0.05774474889039993,
        -6.674556732177734
      ],
      "type": "VEC3"
    },
    {
      "bufferView": 2,
      "byteOffset": 10637664,
      "componentType": 5126,
      "count": 65532,
      "max": [
        0.9981094002723694,
        0.9098429083824158,
        0.9934915900230408
      ],
      "min": [
        -0.9892166256904602,
        -0.9999999403953552,
        -0.8659858703613281
      ],
      "type": "VEC3"
    },
    {
      "bufferView": 3,
      "byteOffset": 6567520,
      "componentType": 5126,
      "count": 65532,
      "max": [
        0.23529411852359772,
        0.33725491166114807,
        0.43529412150382996,
        1.0
      ],
      "min": [
        0.2235294133424759,
        0.3333333432674408,
        0.4274509847164154,
        1.0
      ],
      "type": "VEC4"
    },
    {
      "bufferView": 0,
      "byteOffset": 8630436,
      "componentType": 5125,
      "count": 339981,
      "type": "SCALAR"
    },
    {
      "bufferView": 2,
      "byteOffset": 11424048,
      "componentType": 5126,
      "count": 65532,
      "max": [
        10.615689277648926,
        28.74689483642578,
        10.283612251281738
      ],
      "min": [
        -10.391823768615723,
        -0.03701922297477722,
        -4.848338603973389
      ],
      "type": "VEC3"
    },
    {
      "bufferView": 2,
      "byteOffset": 12210432,
      "componentType": 5126,
      "count": 65532,
      "max": [
        0.9950735569000244,
        0.9997401833534241,
        0.9959122538566589
      ],
      "min": [
        -0.9937324523925781,
        -0.9999991655349731,
        -0.9994745254516602
      ],
      "type": "VEC3"
    },
    {
      "bufferView": 3,
      "byteOffset": 7616032,
      "componentType": 5126,
      "count": 65532,
      "max": [
        0.5568627715110779,
        0.33725491166114807,
        0.43529412150382996,
        1.0
      ],
      "min": [
        0.2235294133424759,
        0.18039216101169586,
        0.2862745225429535,
        1.0
      ],
      "type": "VEC4"
    },
    {
      "bufferView": 0,
      "byteOffset": 9990360,
      "componentType": 5125,
      "count": 320712,
      "type": "SCALAR"
    },
    {
      "bufferView": 2,
      "byteOffset": 12996816,
      "componentType": 5126,
      "count": 53860,
      "max": [
        10.68838119506836,
        28.762413024902344,
        11.906883239746094
      ],
      "min": [
        -10.680075645446777,
        -0.03949592262506485,
        -2.323218822479248
      ],
      "type": "VEC3"
    },
    {
      "bufferView": 2,
      "byteOffset": 13643136,
      "componentType": 5126,
      "count": 53860,
      "max": [
        0.9999904036521912,
        0.9999991059303284,
        0.9998303055763245
      ],
      "min": [
        -0.9999072551727295,
        -0.9999219179153442,
        -0.7402129769325256
      ],
      "type": "VEC3"
    },
    {
      "bufferView": 3,
      "byteOffset": 8664544,
      "componentType": 5126,
      "count": 53860,
      "max": [
        0.5568627715110779,
        0.33725491166114807,
        0.43529412150382996,
        1.0
      ],
      "min": [
        0.2235294133424759,
        0.18039216101169586,
        0.2862745225429535,
        1.0
      ],
      "type": "VEC4"
    },
    {
      "bufferView": 0,
      "byteOffset": 11273208,
      "componentType": 5125,
      "count": 241254,
      "type": "SCALAR"
    },
    {
      "bufferView": 2,
      "byteOffset": 14289456,
      "componentType": 5126,
      "count": 2492,
      "max": [
        11.301131248474121,
        23.57622528076172,
        2.474273681640625
      ],
      "min": [
        -11.506247520446777,
        18.69060516357422,
        -0.04541739821434021
      ],
      "type": "VEC3"
    },
    {
      "bufferView": 2,
      "byteOffset": 14319360,
      "componentType": 5126,
      "count": 2492,
      "max": [
        0.972220778465271,
        0.9999908208847046,
        0.999557614326477
      ],
      "min": [
        -0.9942073225975037,
        -0.9999020099639893,
        -0.9995896220207214
      ],
      "type": "VEC3"
    },
    {
      "bufferView": 3,
      "byteOffset": 9526304,
      "componentType": 5126,
      "count": 2492,
      "max": [
        0.019607843831181526,
        0.019607843831181526,
        0.019607843831181526,
        1.0
      ],
      "min": [
        0.019607843831181526,
        0.019607843831181526,
        0.019607843831181526,
        1.0
      ],
      "type": "VEC4"
    },
    {
      "bufferView": 1,
      "byteOffset": 138224,
      "componentType": 5126,
      "count": 2492,
      "max": [
        1.0,
        1.0
      ],
      "min": [
        0.0,
        0.0
      ],
      "type": "VEC2"
    },
    {
      "bufferView": 0,
      "byteOffset": 12238224,
      "componentType": 5125,
      "count": 11520,
      "type": "SCALAR"
    },
    {
      "bufferView": 2,
      "byteOffset": 14349264,
      "componentType": 5126,
      "count": 623,
      "max": [
        12.969696044921875,
        8.113699913024902,
        -8.3231201171875
      ],
      "min": [
        -0.8431909084320068,
        0.04951763153076172,
        -14.569555282592773
      ],
      "type": "VEC3"
    },
    {
      "bufferView": 2,
      "byteOffset": 14356740,
      "componentType": 5126,
      "count": 623,
      "max": [
        0.9393357038497925,
        0.9578067064285278,
        0.9980673789978027
      ],
      "min": [
        -0.9535972476005554,
        -0.998612642288208,
        -0.9954863786697388
      ],
      "type": "VEC3"
    },
    {
      "bufferView": 3,
      "byteOffset": 9566176,
      "componentType": 5126,
      "count": 623,
      "max": [
        0.5647059082984924,
        0.18039216101169586,
        0.2862745225429535,
        1.0
      ],
      "min": [
        0.5647059082984924,
        0.18039216101169586,
        0.2862745225429535,
        1.0
      ],
      "type": "VEC4"
    },
    {
      "bufferView": 1,
      "byteOffset": 158160,
      "componentType": 5126,
      "count": 623,
      "max": [
        1.0,
        1.0
      ],
      "min": [
        0.0,
        0.0
      ],
      "type": "VEC2"
    },
    {
      "bufferView": 0,
      "byteOffset": 12284304,
      "componentType": 5125,
      "count": 2880,
      "type": "SCALAR"
    }
  ],
  "asset": {
    "extras": {
      "author": "happyhead (https://sketchfab.com/happyhead)",
      "license": "CC-BY-4.0 (http://creativecommons.org/licenses/by/4.0/)",
      "source": "https://sketchfab.com/3d-models/stupid-rat-da1ddc77aee945bcbcd1142fbc2124e1",
      "title": "Stupid Rat"
    },
    "generator": "Sketchfab-15.1.0",
    "version": "2.0"
  },
  "bufferViews": [
    {
      "buffer": 0,
      "byteLength": 12295824,
      "name": "floatBufferViews",
      "target": 34963
    },
    {
      "buffer": 0,
      "byteLength": 163144,
      "byteOffset": 12295824,
      "byteStride": 8,
      "name": "floatBufferViews",
      "target": 34962
    },
    {
      "buffer": 0,
      "byteLength": 14364216,
      "byteOffset": 12458968,
      "byteStride": 12,
      "name": "floatBufferViews",
      "target": 34962
    },
    {
      "buffer": 0,
      "byteLength": 9576144,
      "byteOffset": 26823184,
      "byteStride": 16,
      "name": "floatBufferViews",
      "target": 34962
    }
  ],
  "buffers": [
    {
      "byteLength": 36399328,
      "uri": "scene.bin"
    }
  ],
  "materials": [
    {
      "doubleSided": true,
      "name": "PM3D_Sphere3D1",
      "pbrMetallicRoughness": {
        "metallicFactor": 0.0,
        "roughnessFactor": 0.5
      }
    },
    {
      "doubleSided": true,
      "name": "PM3D_Cylinder3D_2",
      "pbrMetallicRoughness": {
        "metallicFactor": 0.0,
        "roughnessFactor": 0.5
      }
    },
    {
      "doubleSided": true,
      "name": "PM3D_Cylinder3D1",
      "pbrMetallicRoughness": {
        "metallicFactor": 0.0,
        "roughnessFactor": 0.5
      }
    },
    {
      "doubleSided": true,
      "name": "PM3D_Cylinder3D1_1",
      "pbrMetallicRoughness": {
        "metallicFactor": 0.0,
        "roughnessFactor": 0.5
      }
    }
  ],
  "meshes": [
    {
      "name": "Object_0",
      "primitives": [
        {
          "attributes": {
            "COLOR_0": 2,
            "NORMAL": 1,
            "POSITION": 0,
            "TEXCOORD_0": 3
          },
          "indices": 4,
          "material": 0,
          "mode": 4
        }
      ]
    },
    {
      "name": "Object_1",
      "primitives": [
        {
          "attributes": {
            "COLOR_0": 7,
            "NORMAL": 6,
            "POSITION": 5
          },
          "indices": 8,
          "material": 1,
          "mode": 4
        }
      ]
    },
    {
      "name": "Object_2",
      "primitives": [
        {
          "attributes": {
            "COLOR_0": 11,
            "NORMAL": 10,
            "POSITION": 9
          },
          "indices": 12,
          "material": 1,
          "mode": 4
        }
      ]
    },
    {
      "name": "Object_3",
      "primitives": [
        {
          "attributes": {
            "COLOR_0": 15,
            "NORMAL": 14,
            "POSITION": 13
          },
          "indices": 16,
          "material": 1,
          "mode": 4
        }
      ]
    },
    {
      "name": "Object_4",
      "primitives": [
        {
          "attributes": {
            "COLOR_0": 19,
            "NORMAL": 18,
            "POSITION": 17
          },
          "indices": 20,
          "material": 1,
          "mode": 4
        }
      ]
    },
    {
      "name": "Object_5",
      "primitives": [
        {
          "attributes": {
            "COLOR_0": 23,
            "NORMAL": 22,
            "POSITION": 21
          },
          "indices": 24,
          "material": 1,
          "mode": 4
        }
      ]
    },
    {
      "name": "Object_6",
      "primitives": [
        {
          "attributes": {
            "COLOR_0": 27,
            "NORMAL": 26,
            "POSITION": 25
          },
          "indices": 28,
          "material": 1,
          "mode": 4
        }
      ]
    },
    {
      "name": "Object_7",
      "primitives": [
        {
          "attributes": {
            "COLOR_0": 31,
            "NORMAL": 30,
            "POSITION": 29
          },
          "indices": 32,
          "material": 1,
          "mode": 4
        }
      ]
    },
    {
      "name": "Object_8",
      "primitives": [
        {
          "attributes": {
            "COLOR_0": 35,
            "NORMAL": 34,
            "POSITION": 33
          },
          "indices": 36,
          "material": 1,
          "mode": 4
        }
      ]
    },
    {
      "name": "Object_9",
      "primitives": [
        {
          "attributes": {
            "COLOR_0": 39,
            "NORMAL": 38,
            "POSITION": 37
          },
          "indices": 40,
          "material": 1,
          "mode": 4
        }
      ]
    },
    {
      "name": "Object_10",
      "primitives": [
        {
          "attributes": {
            "COLOR_0": 43,
            "NORMAL": 42,
            "POSITION": 41,
            "TEXCOORD_0": 44
          },
          "indices": 45,
          "material": 2,
          "mode": 4
        }
      ]
    },
    {
      "name": "Object_11",
      "primitives": [
        {
          "attributes": {
            "COLOR_0": 48,
            "NORMAL": 47,
            "POSITION": 46,
            "TEXCOORD_0": 49
          },
          "indices": 50,
          "material": 3,
          "mode": 4
        }
      ]
    }
  ],
  "nodes": [
    {
      "children": [
        1
      ],
      "matrix": [
        1.0,
        0.0,
        0.0,
        0.0,
        0.0,
        2.220446049250313e-16,
        -1.0,
        0.0,
        0.0,
        1.0,
        2.220446049250313e-16,
        0.0,
        0.0,
        0.0,
        0.0,
        1.0
      ],
      "name": "Sketchfab_model"
    },
    {
      "children": [
        2
      ],
      "name": "root"
    },
    {
      "children": [
        3,
        5,
        15,
        17
      ],
      "matrix": [
        0.07,
        0.0,
        0.0,
        0.0,
        0.0,
        2.220446049250313e-16,
        0.07,
        0.0,
        0.0,
        -0.07,
        2.220446049250313e-16,
        0.0,
        0.0,
        0.0,
        -1.0,
        0.07
      ],
      "name": "GLTF_SceneRootNode"
    },
    {
      "children": [
        4
      ],
      "name": "PM3D_Sphere3D1_0"
    },
    {
      "mesh": 0,
      "name": "Object_4"
    },
    {
      "children": [
        6,
        7,
        8,
        9,
        10,
        11,
        12,
        13,
        14
      ],
      "name": "PM3D_Cylinder3D_2_1"
    },
    {
      "mesh": 1,
      "name": "Object_6"
    },
    {
      "mesh": 2,
      "name": "Object_7"
    },
    {
      "mesh": 3,
      "name": "Object_8"
    },
    {
      "mesh": 4,
      "name": "Object_9"
    },
    {
      "mesh": 5,
      "name": "Object_10"
    },
    {
      "mesh": 6,
      "name": "Object_11"
    },
    {
      "mesh": 7,
      "name": "Object_12"
    },
    {
      "mesh": 8,
      "name": "Object_13"
    },
    {
      "mesh": 9,
      "name": "Object_14"
    },
    {
      "children": [
        16
      ],
      "name": "PM3D_Cylinder3D1_2"
    },
    {
      "mesh": 10,
      "name": "Object_16"
    },
    {
      "children": [
        18
      ],
      "name": "PM3D_Cylinder3D1_1_3"
    },
    {
      "mesh": 11,
      "name": "Object_18"
    }
  ],
  "scene": 0,
  "scenes": [
    {
      "name": "Sketchfab_Scene",
      "nodes": [
        0
      ]
    }
  ]
}
